{"title":"Mirrors 2 2010 BRRip.480p.H264.Feel-Free","uid":5896928,"size":1600080076,"categoryP":"video","categoryS":"movies","magnet":"?xt=urn:btih:faa7dfed9c8c16e8b6fabd797b65ec009aa0a902&amp;dn=Mirrors+2+2010+BRRip.480p.H264.Feel-Free&amp;tr=udp%3A%2F%2Ftracker.openbittorrent.com%3A80&amp;tr=udp%3A%2F%2Fopen.demonii.com%3A1337&amp;tr=udp%3A%2F%2Ftracker.coppersurfer.tk%3A6969&amp;tr=udp%3A%2F%2Fexodus.desync.com%3A6969","seeders":0,"leechers":0,"uploader":"neon","files":-1,"time":1287530475,"description":"When Max, who is recovering from a traumatic accident, takes a job as a nighttime security guard, he begins to see visions of a young mysterious woman in the store's mirror.\n\nGenre:Horror | Mystery | Thriller\nLanguage:English\n &lt;a href=&quot; http://www.imdb.com/title/tt1576699/&quot; rel=&quot;nofollow&quot; target=&quot;_NEW&quot;&gt; http://www.imdb.com/title/tt1576699/&lt;/a&gt;\nSource:720p.DTS.x264-BECKS\n &lt;a href=&quot;\nhttp://www.youtube.com/watch?v=cj5FPro4YSE&amp;feature=player_embedded&quot; rel=&quot;nofollow&quot; target=&quot;_NEW&quot;&gt;\nhttp://www.youtube.com/watch?v=cj5FPro4YSE&amp;feature=player_embedded&lt;/a&gt;\n &lt;a href=&quot;\nhttp://www.starshare.ro/bitbucket/vlcsnap-2010-10-19-23h37m06s227.jpg&quot; rel=&quot;nofollow&quot; target=&quot;_NEW&quot;&gt;\nhttp://www.starshare.ro/bitbucket/vlcsnap-2010-10-19-23h37m06s227.jpg&lt;/a&gt; &lt;a href=&quot;\nhttp://www.starshare.ro/bitbucket/vlcsnap-2010-10-19-23h37m11s27.jpg&quot; rel=&quot;nofollow&quot; target=&quot;_NEW&quot;&gt;\nhttp://www.starshare.ro/bitbucket/vlcsnap-2010-10-19-23h37m11s27.jpg&lt;/a&gt; &lt;a href=&quot;\nhttp://www.starshare.ro/bitbucket/vlcsnap-2010-10-19-23h37m37s29.jpg&quot; rel=&quot;nofollow&quot; target=&quot;_NEW&quot;&gt;\nhttp://www.starshare.ro/bitbucket/vlcsnap-2010-10-19-23h37m37s29.jpg&lt;/a&gt; &lt;a href=&quot;\nhttp://www.starshare.ro/bitbucket/vlcsnap-2010-10-19-23h38m16s164.jpg&quot; rel=&quot;nofollow&quot; target=&quot;_NEW&quot;&gt;\nhttp://www.starshare.ro/bitbucket/vlcsnap-2010-10-19-23h38m16s164.jpg&lt;/a&gt;\n\nGeneral\nComplete name :Mirrors.2.2010.BRRip.480p.H264.Feel-Free\nFormat : MPEG-4\nFormat profile : Base Media\nCodec ID : isom\nFile size : 1.49 GiB\nDuration : 1h 30mn\nOverall bit rate : 2 365 Kbps\nVideo #1\nCodec ID : avc1\nCodec ID/Info : Advanced Video Coding\nDuration : 1h 30mn\nBit rate mode : Variable\nBit rate : 2 047 Kbps\nWidth : 720 pixels\nHeight : 384 pixels\nDisplay aspect ratio : 1.875\nFrame rate mode : Constant\nFrame rate : 24.390 fps\nResolution : 24 bits\nColorimetry : 4:2:0\nScan type : Progressive\nBits/(Pixel*Frame) : 0.304\nStream size : 1.29 GiB (87%)\nAudio #2\nID : 2\nFormat : AAC\nFormat/Info : Advanced Audio Codec\nFormat version : Version 4\nFormat profile : LC\nFormat settings, SBR : No\nCodec ID : 40\nDuration : 1h 30mn\nBit rate mode : Variable\nBit rate : 320 Kbps\nChannel(s) : 6 channels\nChannel positions : Front: L C R, Rear: L R, LFE\nSampling rate : 48.0 KHz\nResolution : 16 bits\nStream size : 203 MiB (13%)","torrent":{"xt":"urn:btih:faa7dfed9c8c16e8b6fabd797b65ec009aa0a902","amp;dn":"Mirrors+2+2010+BRRip.480p.H264.Feel-Free","amp;tr":["udp%3A%2F%2Ftracker.openbittorrent.com%3A80","udp%3A%2F%2Fopen.demonii.com%3A1337","udp%3A%2F%2Ftracker.coppersurfer.tk%3A6969","udp%3A%2F%2Fexodus.desync.com%3A6969"],"infoHash":"faa7dfed9c8c16e8b6fabd797b65ec009aa0a902","infoHashBuffer":{"type":"Buffer","data":[250,167,223,237,156,140,22,232,182,250,189,121,123,101,236,0,154,160,169,2]},"announce":[],"urlList":[]}}